# xmcd
#
# Track frame offsets:
#   150
#   17189
#   35070
#   51578
#   65151
#   84127
#   100915
#   131748
#   144655
#   162579
#   184298
#   204493
#   220556
#   247737
#   265342
#   284706
#   305440
#
# Disc length: 4331 seconds
#
# Revision: 0
# Processed by: cddbd v1.5.2PL0 Copyright (c) Steve Scherf et al.
# Submitted via: GXTranscoder 2.0.1939
#
DISCID=0810e911
DTITLE=Hip Hop - November 2003
DYEAR=1900
DGENRE=Blues
TTITLE0=Hip Hop 2003
TTITLE1=Hip Hop 2003
TTITLE2=Hip Hop 2003
TTITLE3=Hip Hop 2003
TTITLE4=Hip Hop 2003
TTITLE5=Hip Hop 2003
TTITLE6=Hip Hop 2003
TTITLE7=Hip Hop 2003
TTITLE8=Hip Hop 2003
TTITLE9=Hip Hop 2003
TTITLE10=Hip Hop 2003
TTITLE11=Hip Hop 2003
TTITLE12=Hip Hop 2003
TTITLE13=Hip Hop 2003
TTITLE14=Hip Hop 2003
TTITLE15=Hip Hop 2003
TTITLE16=Hip Hop 2003
EXTD=
EXTT0=
EXTT1=
EXTT2=
EXTT3=
EXTT4=
EXTT5=
EXTT6=
EXTT7=
EXTT8=
EXTT9=
EXTT10=
EXTT11=
EXTT12=
EXTT13=
EXTT14=
EXTT15=
EXTT16=
PLAYORDER=
